<?xml version="1.0" encoding="utf-8"?>
<!-- Generator: Adobe Illustrator 26.3.1, SVG Export Plug-In . SVG Version: 6.00 Build 0)  -->
<svg version="1.1" id="Layer_1" xmlns="http://www.w3.org/2000/svg" xmlns:xlink="http://www.w3.org/1999/xlink" x="0px" y="0px"
	 viewBox="0 0 154.3 154.3" style="enable-background:new 0 0 154.3 154.3;" xml:space="preserve">
<style type="text/css">
	.st0{fill:#625DF5;}
</style>
<path class="st0" d="M154.3,68.6h-45.1L148.3,46l-8.6-14.9l-39.1,22.6l22.6-39.1L108.3,6L85.8,45.1V0H68.6v45.1L46,6l-14.9,8.6
	l22.6,39.1L14.6,31.2L6,46l39.1,22.6H0v17.2h45.1L6,108.3l8.6,14.9l39.1-22.6l-22.6,39.1l14.9,8.6l22.6-39.1v45.1h17.2v-45.1
	l22.6,39.1l14.9-8.6l-22.6-39.1l39.1,22.6l8.6-14.9l-39.1-22.6h45.1L154.3,68.6L154.3,68.6z M77.2,100.5
	c-12.9,0-23.4-10.5-23.4-23.4c0-12.9,10.5-23.4,23.4-23.4c12.9,0,23.4,10.5,23.4,23.4C100.6,90,90.1,100.5,77.2,100.5z"/>
</svg>
