<svg width="120" height="120" viewBox="0 0 120 120" fill="none" xmlns="http://www.w3.org/2000/svg">
<g clip-path="url(#clip0_4_150)">
<path d="M120 63.2333C120.006 62.3006 119.521 61.4325 118.721 60.9448H118.707L118.657 60.9171L77.0704 36.4513C76.8908 36.3308 76.7044 36.2205 76.5121 36.1213C74.9065 35.298 72.9991 35.298 71.3933 36.1213C71.201 36.2206 71.0147 36.3308 70.8351 36.4513L29.2485 60.9171L29.1983 60.9448C27.9273 61.7304 27.5376 63.3913 28.328 64.6545C28.5609 65.0267 28.8816 65.3367 29.2624 65.5578L70.8492 90.0236C71.0294 90.1431 71.2157 90.2533 71.4074 90.3537C73.0131 91.177 74.9205 91.177 76.5262 90.3537C76.7179 90.2533 76.9042 90.1432 77.0845 90.0236L118.671 65.5578C119.502 65.0764 120.009 64.1891 120 63.2333Z" fill="#0A2767"/>
<path d="M34.1112 46.9351H61.4008V71.8086H34.1112V46.9351ZM114.428 21.6508V10.2727C114.494 7.42795 112.229 5.06817 109.368 5H38.5516C35.6906 5.06817 33.4261 7.42795 33.4916 10.2727V21.6508L75.3554 32.7513L114.428 21.6508Z" fill="#0364B8"/>
<path d="M33.4902 21.6207H61.4094V46.5843H33.4902V21.6207Z" fill="#0078D4"/>
<path d="M89.3146 21.6207H61.4092V46.5843L89.3146 71.5479H114.429V46.5843L89.3146 21.6207Z" fill="#28A8EA"/>
<path d="M61.4092 46.6494H89.3283V71.613H61.4092V46.6494Z" fill="#0078D4"/>
<path d="M61.4092 71.613H89.3283V96.5766H61.4092V71.613Z" fill="#0364B8"/>
<path d="M34.0801 71.8086H61.3439V94.4257H34.0801V71.8086Z" fill="#14447D"/>
<path d="M89.3281 71.613H114.429V96.5766H89.3281V71.613Z" fill="#0078D4"/>
<path d="M118.722 65.4432L118.669 65.4709L77.0929 88.7275C76.9116 88.8385 76.7274 88.9439 76.5348 89.0383C75.8287 89.3728 75.0617 89.5616 74.2803 89.5934L72.0089 88.2723C71.817 88.1765 71.6307 88.07 71.4509 87.9532L29.3169 64.0361H29.2974L27.9189 63.2701V110.349C27.9404 113.491 30.5173 116.02 33.6754 116H114.333C114.38 116 114.422 115.978 114.472 115.978C115.139 115.935 115.797 115.799 116.425 115.573C116.697 115.458 116.959 115.323 117.209 115.167C117.396 115.062 117.717 114.832 117.717 114.832C119.147 113.78 119.993 112.118 120 110.35V63.2701C119.999 64.1706 119.511 65.0009 118.722 65.4432Z" fill="url(#paint0_linear_4_150)"/>
<path opacity="0.5" d="M117.771 63.0615V65.9488L74.2831 95.7293L29.2596 64.0331C29.2596 64.0178 29.2471 64.0054 29.2317 64.0054L25.1006 61.5345V59.4523L26.8033 59.4246L30.404 61.479L30.4877 61.5068L30.7947 61.7011C30.7947 61.7011 73.1106 85.7155 73.2223 85.771L74.8412 86.7149C74.9808 86.6593 75.1203 86.6038 75.2878 86.5483C75.3716 86.4927 117.297 63.0336 117.297 63.0336L117.771 63.0615Z" fill="#0A2767"/>
<path d="M118.722 65.4432L118.669 65.4737L77.0928 88.7302C76.9114 88.8412 76.7273 88.9467 76.5347 89.041C74.9201 89.8256 73.0319 89.8256 71.4173 89.041C71.2261 88.9469 71.0398 88.8431 70.8592 88.7302L29.2834 65.4737L29.2332 65.4432C28.4305 65.0103 27.9273 64.1783 27.9189 63.2701V110.349C27.9389 113.49 30.5148 116.02 33.6724 116C33.6724 116 33.6725 116 33.6726 116H114.246C117.404 116.02 119.98 113.49 120 110.35C120 110.35 120 110.35 120 110.349V63.2701C119.999 64.1706 119.51 65.0009 118.722 65.4432Z" fill="#1490DF"/>
<path opacity="0.1" d="M77.6934 88.364L77.0712 88.711C76.8909 88.8252 76.7046 88.93 76.5132 89.0247C75.8277 89.3594 75.0824 89.5557 74.3203 89.6021L90.1366 108.212L117.727 114.827C118.483 114.259 119.084 113.511 119.476 112.653L77.6934 88.364Z" fill="black"/>
<path opacity="0.05" d="M80.5127 86.7998L77.0719 88.7232C76.8915 88.8374 76.7052 88.9421 76.5137 89.0369C75.8281 89.3715 75.0826 89.5678 74.3203 89.6141L81.7322 109.939L117.745 114.827C119.164 113.767 119.999 112.106 120 110.342V109.734L80.5127 86.7998Z" fill="black"/>
<path d="M33.7522 116H114.259C115.498 116.006 116.706 115.617 117.706 114.89L72.017 88.278C71.825 88.1822 71.6386 88.0756 71.4588 87.9588L29.3144 64.0417H29.2949L27.9189 63.2701V110.189C27.9158 113.395 30.5274 115.997 33.7522 116C33.7521 116 33.7521 116 33.7522 116Z" fill="#28A8EA"/>
<path opacity="0.1" d="M66.9796 32.315V91.5334C66.9746 93.6096 65.7059 95.4759 63.771 96.2531C63.1716 96.5094 62.5261 96.6417 61.8738 96.6418H27.9189V30.0023H33.4991V27.2261H61.8738C64.6924 27.2367 66.9735 29.5102 66.9796 32.315Z" fill="black"/>
<path opacity="0.2" d="M64.2267 35.0486V94.2184C64.2337 94.8885 64.0907 95.5518 63.8078 96.1601C63.0321 98.059 61.1788 99.3048 59.1157 99.3142H27.9189V29.9639H59.1157C59.9261 29.9558 60.7247 30.1566 61.4338 30.5464C63.1459 31.4031 64.2261 33.1445 64.2267 35.0486Z" fill="black"/>
<path opacity="0.2" d="M64.227 35.0492V88.6775C64.2133 91.479 61.9361 93.7497 59.116 93.774H27.9189V29.9639H59.1159C59.9263 29.9558 60.7249 30.1566 61.434 30.5465C63.1461 31.4033 64.2263 33.1449 64.227 35.0492Z" fill="black"/>
<path opacity="0.2" d="M61.4088 35.049V88.6775C61.4058 91.4834 59.1241 93.7603 56.3017 93.774H27.9189V29.9636H56.3016C59.1238 29.9651 61.4103 32.2407 61.4088 35.0463C61.4088 35.0472 61.4088 35.0481 61.4088 35.049Z" fill="black"/>
<path d="M5.11648 29.9636H56.2926C59.1184 29.9636 61.4091 32.2418 61.4091 35.0521V85.948C61.4091 88.7583 59.1184 91.0364 56.2926 91.0364H5.11648C2.2907 91.0364 0 88.7582 0 85.948V35.0521C0 32.2418 2.29076 29.9636 5.11648 29.9636Z" fill="url(#paint1_linear_4_150)"/>
<path d="M16.011 51.2831C17.2706 48.6122 19.3037 46.377 21.8493 44.8648C24.6684 43.2584 27.8782 42.4576 31.1253 42.5505C34.1348 42.4855 37.1045 43.2448 39.7099 44.7454C42.1595 46.1993 44.1324 48.3297 45.3892 50.8779C46.7578 53.6859 47.4399 56.7761 47.3799 59.8964C47.4462 63.1574 46.7444 66.3886 45.3307 69.3311C44.044 71.9705 42.0084 74.1767 39.4757 75.6773C36.7698 77.224 33.6899 78.0032 30.5705 77.9306C27.4967 78.0044 24.4616 77.2365 21.7964 75.7106C19.3255 74.2548 17.3278 72.122 16.0417 69.5669C14.665 66.7996 13.9747 63.7442 14.0288 60.6567C13.9714 57.4234 14.649 54.2191 16.011 51.2831ZM22.2341 66.3509C22.9056 68.0394 24.0445 69.5039 25.5184 70.5743C27.0197 71.6186 28.8174 72.1574 30.6485 72.1116C32.5985 72.1884 34.5206 71.6312 36.1243 70.5243C37.5796 69.4573 38.6885 67.9889 39.3139 66.3009C40.0129 64.4158 40.3579 62.4189 40.3315 60.4098C40.3531 58.3814 40.0288 56.3641 39.3724 54.4437C38.7926 52.7099 37.7195 51.181 36.2832 50.0427C34.7197 48.8835 32.8028 48.2955 30.8548 48.3778C28.9841 48.3296 27.1461 48.8726 25.6048 49.929C24.106 51.0039 22.9455 52.4813 22.2591 54.1884C20.7365 58.1015 20.7286 62.4379 22.2368 66.3564L22.2341 66.3509Z" fill="white"/>
<path d="M89.3281 21.6207H114.429V46.5843H89.3281V21.6207Z" fill="#50D9FF"/>
</g>
<defs>
<linearGradient id="paint0_linear_4_150" x1="73.9594" y1="63.2701" x2="73.9594" y2="116" gradientUnits="userSpaceOnUse">
<stop stop-color="#35B8F1"/>
<stop offset="1" stop-color="#28A8EA"/>
</linearGradient>
<linearGradient id="paint1_linear_4_150" x1="10.668" y1="25.9876" x2="50.412" y2="95.2015" gradientUnits="userSpaceOnUse">
<stop stop-color="#1784D9"/>
<stop offset="0.5" stop-color="#107AD5"/>
<stop offset="1" stop-color="#0A63C9"/>
</linearGradient>
<clipPath id="clip0_4_150">
<rect width="120" height="120" fill="white"/>
</clipPath>
</defs>
</svg>
