<svg width="120" height="113" viewBox="0 0 120 113" fill="none" xmlns="http://www.w3.org/2000/svg">
<path d="M40.7325 0.00136279H76L39.3889 109.151C39.0126 110.273 38.2962 111.247 37.3406 111.938C36.385 112.628 35.2382 113 34.0617 113H6.6149C5.72354 113 4.84496 112.787 4.05186 112.377C3.25875 111.968 2.57391 111.374 2.05399 110.646C1.53407 109.917 1.19401 109.075 1.06196 108.188C0.929899 107.301 1.00964 106.395 1.29457 105.545L35.404 3.85017C35.7801 2.7281 36.4966 1.75305 37.4525 1.06233C38.4085 0.371623 39.5556 6.59351e-05 40.7325 0V0.00136279Z" fill="url(#paint0_linear_4_233)"/>
<path d="M93.0979 73H36.617C36.0919 72.9994 35.5788 73.1572 35.1445 73.4529C34.7102 73.7486 34.3749 74.1684 34.1823 74.6577C33.9896 75.147 33.9486 75.6831 34.0644 76.1961C34.1803 76.7091 34.4477 77.1752 34.8318 77.5338L71.1252 111.464C72.1819 112.451 73.5732 113 75.0183 113H107L93.0979 73Z" fill="#0078D4"/>
<path d="M40.8746 4.13503e-05C39.6805 -0.00455258 38.5161 0.373747 37.5517 1.07968C36.5872 1.78561 35.8732 2.7822 35.5139 3.92385L1.33063 105.452C1.02538 106.305 0.929547 107.219 1.05124 108.117C1.17293 109.015 1.50856 109.87 2.02975 110.611C2.55093 111.351 3.24233 111.955 4.04546 112.371C4.84859 112.787 5.73983 113.002 6.64376 113H34.9048C35.9574 112.811 36.9412 112.346 37.7557 111.652C38.5702 110.957 39.1862 110.059 39.5409 109.048L46.3577 88.9079L70.7073 111.675C71.7277 112.521 73.0077 112.989 74.3319 113H106L92.1108 73.2113L51.6219 73.2208L76.4025 4.13503e-05H40.8746Z" fill="url(#paint1_linear_4_233)"/>
<path d="M85.6079 3.84335C85.2324 2.7231 84.5173 1.74966 83.5632 1.06016C82.6091 0.370662 81.4641 -0.000137355 80.2896 3.81674e-08H41C42.1745 6.74042e-05 43.3193 0.370946 44.2734 1.06042C45.2274 1.74989 45.9426 2.72321 46.3182 3.84335L80.4155 105.542C80.7006 106.392 80.7805 107.298 80.6486 108.186C80.5167 109.073 80.1768 109.916 79.6571 110.645C79.1374 111.373 78.4528 111.967 77.6599 112.377C76.8669 112.786 75.9885 113 75.0973 113H114.388C115.279 113 116.158 112.786 116.95 112.376C117.743 111.967 118.428 111.373 118.947 110.644C119.467 109.915 119.806 109.072 119.938 108.185C120.07 107.298 119.99 106.392 119.705 105.542L85.6079 3.84335Z" fill="url(#paint2_linear_4_233)"/>
<defs>
<linearGradient id="paint0_linear_4_233" x1="53.5863" y1="8.37496" x2="16.5506" y2="117.111" gradientUnits="userSpaceOnUse">
<stop stop-color="#114A8B"/>
<stop offset="1" stop-color="#0669BC"/>
</linearGradient>
<linearGradient id="paint1_linear_4_233" x1="65.261" y1="59.1134" x2="56.7527" y2="61.9832" gradientUnits="userSpaceOnUse">
<stop stop-opacity="0.3"/>
<stop offset="0.071" stop-opacity="0.2"/>
<stop offset="0.321" stop-opacity="0.1"/>
<stop offset="0.623" stop-opacity="0.05"/>
<stop offset="1" stop-opacity="0"/>
</linearGradient>
<linearGradient id="paint2_linear_4_233" x1="60.2082" y1="5.19807" x2="100.864" y2="112.8" gradientUnits="userSpaceOnUse">
<stop stop-color="#3CCBF4"/>
<stop offset="1" stop-color="#2892DF"/>
</linearGradient>
</defs>
</svg>
