<svg width="120" height="120" viewBox="0 0 120 120" fill="none" xmlns="http://www.w3.org/2000/svg">
<path d="M113.623 56.642L62.4594 5.00528L57.5 0L18.986 38.8701L1.37696 56.642C0.495249 57.533 0 58.7408 0 60C0 61.2592 0.495249 62.467 1.37696 63.358L36.5637 98.8701L57.5 120L96.014 81.1299L96.6104 80.528L113.623 63.358C114.505 62.467 115 61.2592 115 60C115 58.7408 114.505 57.533 113.623 56.642ZM57.5 77.7402L39.9223 60L57.5 42.2598L75.0777 60L57.5 77.7402Z" fill="#2684FF"/>
<path d="M58 42.1617C52.4132 36.5756 49.2641 29.0065 49.2403 21.107C49.2165 13.2076 52.32 5.61961 57.8731 0L19 38.8478L40.1574 60L58 42.1617Z" fill="url(#paint0_linear_4_211)"/>
<path d="M75.4542 60L59 77.4774C61.5678 80.2033 63.6047 83.4398 64.9945 87.0021C66.3842 90.5644 67.0995 94.3827 67.0995 98.2387C67.0995 102.095 66.3842 105.913 64.9945 109.475C63.6047 113.038 61.5678 116.274 59 119L95 80.7613L75.4542 60Z" fill="url(#paint1_linear_4_211)"/>
<defs>
<linearGradient id="paint0_linear_4_211" x1="54.828" y1="24.1966" x2="30.0288" y2="49.0018" gradientUnits="userSpaceOnUse">
<stop offset="0.18" stop-color="#0052CC"/>
<stop offset="1" stop-color="#2684FF"/>
</linearGradient>
<linearGradient id="paint1_linear_4_211" x1="1455.08" y1="3616.52" x2="2274.08" y2="3116.79" gradientUnits="userSpaceOnUse">
<stop offset="0.18" stop-color="#0052CC"/>
<stop offset="1" stop-color="#2684FF"/>
</linearGradient>
</defs>
</svg>
