<svg width="123" height="120" viewBox="0 0 123 120" fill="none" xmlns="http://www.w3.org/2000/svg">
<path d="M117.811 4.90637C120.681 7.57287 122.558 11.0927 123 14.9324C123 16.5323 122.558 17.599 121.565 19.6255C120.571 21.652 108.316 42.1308 104.673 47.7837C102.576 51.0902 101.471 55.0367 101.471 58.8764C101.471 62.8228 102.576 66.6626 104.673 69.9691C108.316 75.622 120.571 96.2074 121.565 98.2339C122.558 100.261 123 101.22 123 102.82C122.558 106.66 120.792 110.18 117.922 112.74C115.161 115.513 111.518 117.326 107.654 117.646C105.998 117.646 104.894 117.219 102.907 116.26C100.919 115.3 79.2806 103.78 73.4292 100.261C72.9876 100.047 72.546 99.7272 71.9941 99.5138L43.0685 82.9815C43.7309 88.3145 46.1598 93.4343 50.1342 97.1674C50.9072 97.914 51.6799 98.554 52.5632 99.1939C51.9007 99.5138 51.1279 99.8339 50.4655 100.261C44.6141 103.78 23.3065 115.62 21.2088 116.579C19.1112 117.539 18.1175 117.966 16.3511 117.966C12.3766 117.539 8.73333 115.833 6.08365 113.06C3.21319 110.393 1.33635 106.873 0.894737 103.034C1.00514 101.434 1.44675 99.8339 2.32998 98.4473C3.3236 96.4208 15.5783 75.8353 19.2215 70.1824C21.3191 66.8759 22.4233 63.0361 22.4233 59.0897C22.4233 55.1433 21.3191 51.3035 19.2215 47.997C15.5783 42.1308 3.21319 21.5453 2.32998 19.5188C1.44675 18.1322 1.00514 16.5323 0.894737 14.9324C1.33635 11.0927 3.10279 7.57287 5.97326 4.90637C8.73333 2.13321 12.3766 0.42664 16.3511 0C18.0071 0.10666 19.6631 0.533301 21.2088 1.38659C22.9753 2.13321 38.542 10.8793 46.8222 15.5724L48.6991 16.639C49.3614 17.0656 49.9135 17.3856 50.3551 17.599L51.2383 18.1322L80.7158 34.9846C80.0534 28.5849 76.6309 22.7186 71.3316 18.7722C71.9941 18.4523 72.7668 18.1322 73.4292 17.7055C79.2806 14.1858 100.588 2.23986 102.686 1.38659C104.121 0.533301 105.777 0.10666 107.544 0C111.408 0.42664 115.051 2.13321 117.811 4.90637ZM63.4929 66.5559L69.786 60.4762C70.6692 59.6229 70.6692 58.3432 69.786 57.4899L63.4929 51.4101C62.6097 50.5569 61.285 50.5569 60.4018 51.4101L54.1088 57.4899C53.2255 58.3432 53.2255 59.6229 54.1088 60.4762L60.4018 66.5559C61.1746 67.3025 62.6097 67.3025 63.4929 66.5559Z" fill="#FF694A"/>
</svg>
