<svg width="678" height="230" viewBox="0 0 678 230" fill="none" xmlns="http://www.w3.org/2000/svg">
<path d="M206.275 157.03L212.76 155.408V86.2422L206.275 84.6211V83H235.455C246.406 83 254.44 84.7652 259.555 88.2955C264.743 91.7539 267.336 96.2929 267.336 101.913C267.336 105.803 266.219 108.937 263.986 111.315C261.753 113.693 258.907 115.458 255.448 116.61C251.774 117.907 247.811 118.592 243.56 118.664V119.204C248.82 119.42 253.395 120.213 257.286 121.582C261.248 122.879 264.526 124.896 267.12 127.634C269.786 130.372 271.119 133.866 271.119 138.117C271.119 144.529 268.489 149.573 263.229 153.247C257.97 156.849 249.432 158.651 237.616 158.651H206.275V157.03ZM235.455 117.583C237.833 117.583 240.03 116.935 242.047 115.638C244.137 114.269 245.794 112.396 247.019 110.018C248.316 107.568 248.964 104.867 248.964 101.913C248.964 98.7425 248.316 95.9327 247.019 93.483C245.794 91.0334 244.137 89.1241 242.047 87.7552C240.03 86.3863 237.833 85.7018 235.455 85.7018H230.592V117.583H235.455ZM237.616 155.949C242.083 155.949 245.722 154.364 248.532 151.194C251.342 148.024 252.746 143.665 252.746 138.117C252.746 132.569 251.342 128.21 248.532 125.04C245.722 121.87 242.083 120.285 237.616 120.285H230.592V155.949H237.616Z" fill="#1A1B6C"/>
<path d="M273.246 157.03L279.731 155.408V86.2422L273.246 84.6211V83H287.296C293.78 83 297.022 86.2422 297.022 92.7265V155.408L303.507 157.03V158.651H273.246V157.03Z" fill="#1A1B6C"/>
<path d="M333.21 160.272C324.276 160.272 317.251 157.75 312.136 152.707C307.092 147.591 304.571 140.567 304.571 131.633C304.571 122.699 307.092 115.71 312.136 110.667C317.251 105.551 324.276 102.993 333.21 102.993C342.144 102.993 349.132 105.551 354.176 110.667C359.291 115.71 361.849 122.699 361.849 131.633C361.849 140.567 359.291 147.591 354.176 152.707C349.132 157.75 342.144 160.272 333.21 160.272ZM333.21 158.11C336.092 158.11 338.505 156.093 340.451 152.058C342.468 148.024 343.477 141.215 343.477 131.633C343.477 122.05 342.468 115.242 340.451 111.207C338.505 107.172 336.092 105.155 333.21 105.155C330.328 105.155 327.878 107.172 325.861 111.207C323.915 115.242 322.943 122.05 322.943 131.633C322.943 141.215 323.915 148.024 325.861 152.058C327.878 156.093 330.328 158.11 333.21 158.11Z" fill="#1A1B6C"/>
<path d="M390.526 160.272C386.059 160.272 382.06 159.299 378.53 157.354C376.801 156.417 375.396 155.408 374.315 154.328C373.162 155.913 371.902 157.138 370.533 158.002C369.884 158.434 369.164 158.831 368.371 159.191H365.669V140.819H369.992C370.929 143.845 372.298 146.655 374.099 149.248C377.918 154.796 382.673 157.57 388.365 157.57C391.391 157.57 393.66 156.849 395.173 155.408C396.758 153.895 397.551 151.734 397.551 148.924C397.551 146.547 396.47 144.565 394.309 142.98C392.219 141.323 388.905 139.306 384.366 136.928C380.475 134.983 377.305 133.254 374.856 131.741C372.478 130.156 370.425 128.21 368.695 125.905C367.038 123.527 366.21 120.753 366.21 117.583C366.21 113.26 368.047 109.766 371.721 107.1C375.468 104.362 381.196 102.993 388.905 102.993C392.723 102.993 396.254 104.002 399.496 106.019C401.081 106.956 402.45 107.929 403.603 108.937C404.539 107.64 405.8 106.416 407.385 105.263C408.61 104.542 409.331 104.146 409.547 104.074H412.249V122.446H407.926C406.845 119.348 405.512 116.574 403.927 114.125C400.325 108.505 396.038 105.695 391.066 105.695C389.121 105.695 387.464 106.416 386.095 107.857C384.726 109.298 384.042 111.099 384.042 113.26C384.042 115.998 385.194 118.304 387.5 120.177C389.806 121.978 393.3 124.067 397.983 126.445C401.802 128.39 404.828 130.12 407.061 131.633C409.367 133.074 411.312 134.875 412.897 137.036C414.554 139.198 415.383 141.719 415.383 144.601C415.383 155.048 407.097 160.272 390.526 160.272Z" fill="#1A1B6C"/>
<path d="M443.486 160.272C439.019 160.272 435.02 159.299 431.49 157.354C429.76 156.417 428.356 155.408 427.275 154.328C426.122 155.913 424.861 157.138 423.492 158.002C422.844 158.434 422.123 158.831 421.331 159.191H418.629V140.819H422.952C423.889 143.845 425.257 146.655 427.059 149.248C430.877 154.796 435.632 157.57 441.324 157.57C444.35 157.57 446.62 156.849 448.133 155.408C449.718 153.895 450.51 151.734 450.51 148.924C450.51 146.547 449.43 144.565 447.268 142.98C445.179 141.323 441.865 139.306 437.326 136.928C433.435 134.983 430.265 133.254 427.815 131.741C425.438 130.156 423.384 128.21 421.655 125.905C419.998 123.527 419.169 120.753 419.169 117.583C419.169 113.26 421.007 109.766 424.681 107.1C428.428 104.362 434.155 102.993 441.865 102.993C445.683 102.993 449.213 104.002 452.456 106.019C454.041 106.956 455.41 107.929 456.562 108.937C457.499 107.64 458.76 106.416 460.345 105.263C461.57 104.542 462.29 104.146 462.506 104.074H465.208V122.446H460.885C459.805 119.348 458.472 116.574 456.887 114.125C453.284 108.505 448.997 105.695 444.026 105.695C442.081 105.695 440.424 106.416 439.055 107.857C437.686 109.298 437.001 111.099 437.001 113.26C437.001 115.998 438.154 118.304 440.46 120.177C442.765 121.978 446.26 124.067 450.943 126.445C454.761 128.39 457.787 130.12 460.021 131.633C462.326 133.074 464.272 134.875 465.857 137.036C467.514 139.198 468.342 141.719 468.342 144.601C468.342 155.048 460.057 160.272 443.486 160.272Z" fill="#1A1B6C"/>
<path d="M499.687 160.272C490.753 160.272 483.729 157.75 478.613 152.707C473.57 147.591 471.048 140.567 471.048 131.633C471.048 122.699 473.57 115.71 478.613 110.667C483.729 105.551 490.753 102.993 499.687 102.993C508.621 102.993 515.61 105.551 520.653 110.667C525.769 115.71 528.327 122.699 528.327 131.633C528.327 140.567 525.769 147.591 520.653 152.707C515.61 157.75 508.621 160.272 499.687 160.272ZM499.687 158.11C502.569 158.11 504.983 156.093 506.928 152.058C508.946 148.024 509.954 141.215 509.954 131.633C509.954 122.05 508.946 115.242 506.928 111.207C504.983 107.172 502.569 105.155 499.687 105.155C496.806 105.155 494.356 107.172 492.339 111.207C490.393 115.242 489.421 122.05 489.421 131.633C489.421 141.215 490.393 148.024 492.339 152.058C494.356 156.093 496.806 158.11 499.687 158.11Z" fill="#1A1B6C"/>
<path d="M531.607 157.03L538.091 155.408V107.857L531.607 106.236V104.614H541.333C545.584 104.614 548.934 105.983 551.384 108.721C552.321 109.802 553.113 111.135 553.762 112.72C554.842 110.703 555.995 109.081 557.22 107.857C560.462 104.614 564.173 102.993 568.351 102.993C572.53 102.993 576.205 103.93 579.375 105.803C582.545 107.604 584.994 110.09 586.724 113.26C587.804 111.171 588.957 109.478 590.182 108.181C593.496 104.723 597.207 102.993 601.313 102.993C605.132 102.993 608.554 103.786 611.58 105.371C614.678 106.956 617.056 109.117 618.713 111.855C620.442 114.593 621.307 117.583 621.307 120.825V155.408L627.791 157.03V158.651H613.742C607.257 158.651 604.015 155.408 604.015 148.924V120.825C604.015 116.142 603.295 112.648 601.854 110.342C600.413 107.965 598.792 106.776 596.991 106.776C594.901 106.776 592.776 108.217 590.614 111.099C589.75 112.468 588.993 113.909 588.345 115.422V155.408L594.829 157.03V158.651H564.569V157.03L571.053 155.408V120.825C571.053 116.142 570.333 112.648 568.892 110.342C567.451 107.965 565.83 106.776 564.028 106.776C561.939 106.776 559.814 108.217 557.652 111.099C556.788 112.468 556.031 113.909 555.383 115.422V155.408L561.867 157.03V158.651H531.607V157.03Z" fill="#1A1B6C"/>
<path fill-rule="evenodd" clip-rule="evenodd" d="M118.309 179.286C117.612 179.424 116.889 179.469 116.156 179.414C93.5183 177.696 72.0911 165.192 59.8828 144.046C47.6743 122.9 47.559 98.0913 57.391 77.6272C58.8184 74.6562 61.9127 72.8697 65.1994 73.1191C73.6355 73.7592 81.9035 75.8972 89.589 79.4222C95.3881 68.1146 103.968 58.4684 114.426 51.3862C117.155 49.5379 120.725 49.5379 123.454 51.3862C133.77 58.3723 142.258 67.8532 148.053 78.9625C155.447 75.711 163.356 73.7308 171.419 73.1191C174.706 72.8697 177.8 74.6562 179.227 77.6272C189.059 98.0913 188.944 122.9 176.736 144.046C164.527 165.192 143.1 177.696 120.462 179.414C119.729 179.469 119.006 179.424 118.309 179.286ZM134.895 166.468C148.465 161.853 160.467 152.487 168.189 139.112C178.468 121.308 178.803 100.49 170.879 83.0702C164.373 83.7015 158.004 85.3656 152.03 87.993C154.944 96.0099 156.534 104.663 156.534 113.687C156.534 134.254 148.276 152.893 134.895 166.468ZM139.316 83.5512C134.475 74.2572 127.461 66.2706 118.94 60.2616C110.236 66.3993 103.105 74.6002 98.2554 84.1502C105.974 89.0861 112.831 95.579 118.309 103.491C124.012 95.2549 131.209 88.5563 139.316 83.5512ZM123.9 113.062C128.859 104.604 135.537 97.769 143.239 92.7484C145.462 99.3222 146.666 106.364 146.666 113.687C146.666 130.593 140.248 146.002 129.697 157.609C132.552 142.947 130.825 127.331 123.9 113.062ZM112.718 113.062C107.983 104.984 101.678 98.387 94.4119 93.4367C92.3354 99.8129 91.2136 106.619 91.2136 113.687C91.2136 129.726 96.99 144.418 106.592 155.794C104.218 141.664 106.078 126.744 112.718 113.062ZM118.309 162.432C122.014 150.652 122.166 137.8 118.309 125.617C114.452 137.8 114.605 150.652 118.309 162.432ZM68.429 139.112C76.502 153.095 89.2528 162.695 103.582 167.067C89.8494 153.444 81.3453 134.559 81.3453 113.687C81.3453 104.846 82.8712 96.3619 85.6739 88.4827C79.3875 85.5717 72.6411 83.7398 65.739 83.0702C57.8154 100.49 58.1501 121.308 68.429 139.112Z" fill="#EF898B"/>
</svg>
