<?xml version="1.0" encoding="utf-8"?>
<!-- Generator: Adobe Illustrator 27.0.0, SVG Export Plug-In . SVG Version: 6.00 Build 0)  -->
<svg version="1.1" id="Layer_1" xmlns="http://www.w3.org/2000/svg" xmlns:xlink="http://www.w3.org/1999/xlink" x="0px" y="0px"
	 viewBox="0 0 156.9 156.9" style="enable-background:new 0 0 156.9 156.9;" xml:space="preserve">
<style type="text/css">
	.st0{fill:#EF3E57;}
	.st1{fill:#111115;}
</style>
<g>
	<g>
		<path class="st0" d="M78.4,156.9C35.2,156.9,0,121.7,0,78.4S35.2,0,78.4,0c43.2,0,78.4,35.2,78.4,78.4S121.7,156.9,78.4,156.9z
			 M78.4,33.4c-24.8,0-45.1,20.2-45.1,45c0,24.8,20.2,45,45.1,45c24.8,0,45-20.2,45-45C123.5,53.6,103.3,33.4,78.4,33.4z"/>
	</g>
	<g>
		<g>
			<path class="st1" d="M78.4,102c-13,0-23.6-10.6-23.6-23.6s10.6-23.6,23.6-23.6S102,65.4,102,78.4S91.4,102,78.4,102z"/>
		</g>
	</g>
</g>
</svg>
