<svg width="407" height="160" viewBox="0 0 407 160" fill="none" xmlns="http://www.w3.org/2000/svg">
<path d="M57.5529 56.608C61.7279 52.6219 67.397 50.2953 73.1428 50.0059C75.1093 50.0059 77.0816 50.0177 79.0481 50C78.9477 52.1082 79.0481 54.2223 78.989 56.3304C78.7115 61.0428 76.9694 65.6489 74.0345 69.3456C70.2197 74.3179 64.3853 77.6543 58.1907 78.5165C55.4861 78.9535 52.7401 78.6759 50.0178 78.7527C50.065 76.4319 49.9174 74.1053 50.1005 71.7904C50.632 66.0505 53.3425 60.5527 57.5529 56.608Z" fill="#FFC100"/>
<path d="M80.8691 50C82.9773 50.0236 85.0855 49.9882 87.1996 50.0118C92.4612 50.3838 97.6519 52.4034 101.614 55.9053C105.984 59.6551 108.978 65.0171 109.746 70.7452C110.082 73.4025 109.87 76.0894 110 78.7586C108.157 78.7527 106.321 78.7468 104.478 78.7586C99.949 78.6346 95.4965 77.1701 91.7053 74.7017C89.9573 73.4498 88.1621 72.1802 86.8512 70.444C83.9753 67.2316 82.0207 63.1983 81.2825 58.9465C80.7274 55.9938 80.9518 52.9822 80.8691 50Z" fill="#FFC100"/>
<path d="M50.0218 80.4473C51.8938 80.5536 53.7717 80.3587 55.6377 80.5654C63.6275 80.7366 71.3812 85.2246 75.5207 92.057C77.8947 95.8836 79.1702 100.419 79.0049 104.925C78.9989 106.401 79.0226 107.871 78.9812 109.342C76.0168 109.253 73.0228 109.495 70.0879 108.922C63.5685 107.824 57.5747 103.944 53.9665 98.4052C51.2324 94.3778 49.8683 89.4587 50.01 84.5987C50.01 83.2109 50.01 81.8291 50.0218 80.4473Z" fill="#FFC100"/>
<path d="M100.022 81.073C103.235 80.3584 106.547 80.4765 109.813 80.4765L109.955 80.6183C109.884 83.7067 110.126 86.8306 109.506 89.8836C108.201 96.7337 103.666 102.852 97.5656 106.212C93.7685 108.326 89.4104 109.365 85.07 109.318C83.6823 109.324 82.2886 109.294 80.9009 109.336C80.9009 106.779 80.7946 104.21 81.084 101.665C81.7572 95.5054 85.0877 89.7714 89.8769 85.8976C92.8413 83.5591 96.3254 81.8643 100.022 81.073Z" fill="#FFC100"/>
<path d="M134.197 97.9042C134.197 98.9438 133.837 99.8235 133.118 100.543C132.438 101.223 131.578 101.563 130.539 101.563C129.539 101.563 128.699 101.223 128.02 100.543C127.34 99.8235 127 98.9438 127 97.9042V60.8378C127 59.7982 127.34 58.9385 128.02 58.2588C128.739 57.5391 129.619 57.1792 130.659 57.1792C131.698 57.1792 132.538 57.5391 133.178 58.2588C133.857 58.9385 134.197 59.7982 134.197 60.8378V97.9042Z" fill="black"/>
<path d="M163.086 69.4747C164.125 69.4747 164.985 69.8345 165.665 70.5543C166.344 71.234 166.684 72.0937 166.684 73.1333V88.3677C166.684 92.6061 165.505 95.9649 163.146 98.444C160.786 100.923 157.388 102.163 152.949 102.163C148.511 102.163 145.112 100.923 142.753 98.444C140.434 95.9649 139.274 92.6061 139.274 88.3677V73.1333C139.274 72.0937 139.614 71.234 140.294 70.5543C140.974 69.8345 141.833 69.4747 142.873 69.4747C143.913 69.4747 144.772 69.8345 145.452 70.5543C146.132 71.234 146.472 72.0937 146.472 73.1333V88.3677C146.472 90.8068 147.012 92.6261 148.091 93.8257C149.171 94.9853 150.79 95.565 152.949 95.565C155.149 95.565 156.788 94.9853 157.868 93.8257C158.947 92.6261 159.487 90.8068 159.487 88.3677V73.1333C159.487 72.0937 159.827 71.234 160.507 70.5543C161.186 69.8345 162.046 69.4747 163.086 69.4747Z" fill="black"/>
<path d="M188.331 68.8749C191.53 68.8749 193.889 69.6546 195.409 71.214C196.928 72.7335 197.928 74.7127 198.407 77.1518L197.388 76.612L197.868 75.6524C198.347 74.7327 199.087 73.7531 200.087 72.7135C201.086 71.6339 202.286 70.7342 203.685 70.0145C205.125 69.2547 206.724 68.8749 208.484 68.8749C211.363 68.8749 213.542 69.4947 215.021 70.7342C216.541 71.9737 217.58 73.6331 218.14 75.7124C218.7 77.7516 218.98 80.0308 218.98 82.5498V97.9042C218.98 98.9438 218.64 99.8235 217.96 100.543C217.28 101.223 216.421 101.563 215.381 101.563C214.342 101.563 213.482 101.223 212.802 100.543C212.122 99.8235 211.782 98.9438 211.782 97.9042V82.5498C211.782 81.2303 211.623 80.0508 211.303 79.0111C210.983 77.9315 210.403 77.0719 209.563 76.4321C208.724 75.7923 207.524 75.4725 205.965 75.4725C204.445 75.4725 203.146 75.7923 202.066 76.4321C200.986 77.0719 200.167 77.9315 199.607 79.0111C199.087 80.0508 198.827 81.2303 198.827 82.5498V97.9042C198.827 98.9438 198.487 99.8235 197.808 100.543C197.128 101.223 196.268 101.563 195.229 101.563C194.189 101.563 193.329 101.223 192.65 100.543C191.97 99.8235 191.63 98.9438 191.63 97.9042V82.5498C191.63 81.2303 191.47 80.0508 191.15 79.0111C190.83 77.9315 190.25 77.0719 189.411 76.4321C188.571 75.7923 187.371 75.4725 185.812 75.4725C184.293 75.4725 182.993 75.7923 181.913 76.4321C180.834 77.0719 180.014 77.9315 179.454 79.0111C178.935 80.0508 178.675 81.2303 178.675 82.5498V97.9042C178.675 98.9438 178.335 99.8235 177.655 100.543C176.975 101.223 176.116 101.563 175.076 101.563C174.036 101.563 173.177 101.223 172.497 100.543C171.817 99.8235 171.477 98.9438 171.477 97.9042V73.1333C171.477 72.0937 171.817 71.234 172.497 70.5543C173.177 69.8345 174.036 69.4747 175.076 69.4747C176.116 69.4747 176.975 69.8345 177.655 70.5543C178.335 71.234 178.675 72.0937 178.675 73.1333V75.7124L177.775 75.5324C178.135 74.8527 178.635 74.1329 179.274 73.3732C179.914 72.5735 180.694 71.8338 181.614 71.154C182.533 70.4743 183.553 69.9345 184.672 69.5346C185.792 69.0948 187.012 68.8749 188.331 68.8749Z" fill="black"/>
<path d="M230.548 97.9042C230.548 98.9438 230.208 99.8235 229.528 100.543C228.849 101.223 227.989 101.563 226.949 101.563C225.91 101.563 225.05 101.223 224.37 100.543C223.691 99.8235 223.351 98.9438 223.351 97.9042V73.1333C223.351 72.0937 223.691 71.234 224.37 70.5543C225.05 69.8345 225.91 69.4747 226.949 69.4747C227.989 69.4747 228.849 69.8345 229.528 70.5543C230.208 71.234 230.548 72.0937 230.548 73.1333V97.9042ZM226.889 65.5761C225.53 65.5761 224.57 65.3562 224.01 64.9163C223.451 64.4765 223.171 63.6968 223.171 62.5772V61.4376C223.171 60.2781 223.471 59.4983 224.07 59.0985C224.71 58.6587 225.67 58.4387 226.949 58.4387C228.349 58.4387 229.329 58.6587 229.888 59.0985C230.448 59.5383 230.728 60.318 230.728 61.4376V62.5772C230.728 63.7368 230.428 64.5365 229.828 64.9763C229.229 65.3762 228.249 65.5761 226.889 65.5761Z" fill="black"/>
<path d="M252.1 68.8749C255.059 68.8749 257.298 69.4947 258.817 70.7342C260.377 71.9737 261.436 73.6331 261.996 75.7124C262.596 77.7516 262.896 80.0308 262.896 82.5498V97.9042C262.896 98.9438 262.556 99.8235 261.876 100.543C261.196 101.223 260.337 101.563 259.297 101.563C258.258 101.563 257.398 101.223 256.718 100.543C256.038 99.8235 255.698 98.9438 255.698 97.9042V82.5498C255.698 81.2303 255.519 80.0508 255.159 79.0111C254.839 77.9315 254.239 77.0719 253.359 76.4321C252.48 75.7923 251.22 75.4725 249.581 75.4725C247.981 75.4725 246.622 75.7923 245.502 76.4321C244.423 77.0719 243.583 77.9315 242.983 79.0111C242.423 80.0508 242.143 81.2303 242.143 82.5498V97.9042C242.143 98.9438 241.804 99.8235 241.124 100.543C240.444 101.223 239.584 101.563 238.545 101.563C237.505 101.563 236.645 101.223 235.966 100.543C235.286 99.8235 234.946 98.9438 234.946 97.9042V73.1333C234.946 72.0937 235.286 71.234 235.966 70.5543C236.645 69.8345 237.505 69.4747 238.545 69.4747C239.584 69.4747 240.444 69.8345 241.124 70.5543C241.804 71.234 242.143 72.0937 242.143 73.1333V75.7124L241.244 75.5324C241.604 74.8527 242.123 74.1329 242.803 73.3732C243.483 72.5735 244.283 71.8338 245.202 71.154C246.122 70.4743 247.162 69.9345 248.321 69.5346C249.481 69.0948 250.74 68.8749 252.1 68.8749Z" fill="black"/>
<path d="M298.505 85.5487C298.505 88.8275 297.765 91.7265 296.286 94.2455C294.846 96.7246 292.887 98.6639 290.408 100.063C287.969 101.463 285.23 102.163 282.191 102.163C279.152 102.163 276.393 101.463 273.914 100.063C271.475 98.6639 269.516 96.7246 268.036 94.2455C266.597 91.7265 265.877 88.8275 265.877 85.5487C265.877 82.2699 266.597 79.391 268.036 76.9119C269.516 74.3928 271.475 72.4336 273.914 71.0341C276.393 69.5946 279.152 68.8749 282.191 68.8749C285.23 68.8749 287.969 69.5946 290.408 71.0341C292.887 72.4336 294.846 74.3928 296.286 76.9119C297.765 79.391 298.505 82.2699 298.505 85.5487ZM291.308 85.5487C291.308 83.5095 290.888 81.7501 290.048 80.2707C289.248 78.7512 288.149 77.5717 286.749 76.732C285.39 75.8923 283.87 75.4725 282.191 75.4725C280.512 75.4725 278.972 75.8923 277.573 76.732C276.213 77.5717 275.113 78.7512 274.274 80.2707C273.474 81.7501 273.074 83.5095 273.074 85.5487C273.074 87.548 273.474 89.3074 274.274 90.8268C275.113 92.3062 276.213 93.4658 277.573 94.3055C278.972 95.1452 280.512 95.565 282.191 95.565C283.87 95.565 285.39 95.1452 286.749 94.3055C288.149 93.4658 289.248 92.3062 290.048 90.8268C290.888 89.3074 291.308 87.548 291.308 85.5487Z" fill="black"/>
<path d="M325.33 69.4747C326.37 69.4747 327.23 69.8345 327.91 70.5543C328.589 71.234 328.929 72.0937 328.929 73.1333V88.3677C328.929 92.6061 327.75 95.9649 325.39 98.444C323.031 100.923 319.633 102.163 315.194 102.163C310.756 102.163 307.357 100.923 304.998 98.444C302.679 95.9649 301.519 92.6061 301.519 88.3677V73.1333C301.519 72.0937 301.859 71.234 302.539 70.5543C303.219 69.8345 304.078 69.4747 305.118 69.4747C306.158 69.4747 307.017 69.8345 307.697 70.5543C308.377 71.234 308.717 72.0937 308.717 73.1333V88.3677C308.717 90.8068 309.256 92.6261 310.336 93.8257C311.416 94.9853 313.035 95.565 315.194 95.565C317.393 95.565 319.033 94.9853 320.112 93.8257C321.192 92.6261 321.732 90.8068 321.732 88.3677V73.1333C321.732 72.0937 322.072 71.234 322.751 70.5543C323.431 69.8345 324.291 69.4747 325.33 69.4747Z" fill="black"/>
<path d="M331.863 96.5847C331.463 96.0249 331.283 95.3051 331.323 94.4255C331.363 93.5458 331.883 92.7861 332.883 92.1463C333.522 91.7464 334.202 91.5865 334.922 91.6665C335.641 91.7065 336.341 92.0663 337.021 92.7461C338.181 93.9057 339.4 94.8053 340.68 95.4451C341.959 96.0848 343.559 96.4047 345.478 96.4047C346.078 96.3647 346.737 96.2848 347.457 96.1648C348.177 96.0049 348.797 95.685 349.316 95.2052C349.876 94.6854 350.156 93.9057 350.156 92.866C350.156 91.9864 349.856 91.2866 349.256 90.7668C348.657 90.247 347.857 89.8072 346.857 89.4473C345.898 89.0874 344.818 88.7476 343.619 88.4277C342.379 88.0678 341.099 87.668 339.78 87.2281C338.5 86.7883 337.321 86.2285 336.241 85.5487C335.162 84.829 334.282 83.8893 333.602 82.7298C332.923 81.5702 332.583 80.1107 332.583 78.3514C332.583 76.3521 333.142 74.6528 334.262 73.2533C335.382 71.8538 336.821 70.7742 338.58 70.0145C340.38 69.2547 342.259 68.8749 344.218 68.8749C345.458 68.8749 346.757 69.0348 348.117 69.3547C349.476 69.6346 350.776 70.1144 352.015 70.7942C353.255 71.4339 354.295 72.2936 355.134 73.3732C355.574 73.973 355.834 74.6927 355.914 75.5324C355.994 76.3721 355.614 77.1318 354.774 77.8116C354.175 78.2914 353.475 78.5113 352.675 78.4713C351.876 78.3914 351.216 78.1115 350.696 77.6317C350.016 76.752 349.097 76.0522 347.937 75.5324C346.817 75.0126 345.518 74.7527 344.038 74.7527C343.439 74.7527 342.779 74.8327 342.059 74.9926C341.379 75.1126 340.78 75.4125 340.26 75.8923C339.74 76.3321 339.48 77.0519 339.48 78.0515C339.48 78.9712 339.78 79.7109 340.38 80.2707C340.98 80.7905 341.779 81.2303 342.779 81.5902C343.818 81.9101 344.918 82.23 346.078 82.5498C347.277 82.8697 348.497 83.2496 349.736 83.6894C350.976 84.1293 352.115 84.709 353.155 85.4288C354.195 86.1485 355.034 87.0882 355.674 88.2477C356.314 89.3673 356.634 90.8068 356.634 92.5661C356.634 94.6054 356.034 96.3448 354.834 97.7842C353.635 99.2237 352.135 100.323 350.336 101.083C348.537 101.803 346.697 102.163 344.818 102.163C342.459 102.163 340.1 101.763 337.741 100.963C335.382 100.123 333.422 98.6639 331.863 96.5847Z" fill="black"/>
</svg>
