<?xml version="1.0" encoding="utf-8"?>
<!-- Generator: Adobe Illustrator 27.0.0, SVG Export Plug-In . SVG Version: 6.00 Build 0)  -->
<svg version="1.1" id="Layer_1" xmlns="http://www.w3.org/2000/svg" xmlns:xlink="http://www.w3.org/1999/xlink" x="0px" y="0px"
	 viewBox="0 0 572.5 368.9" style="enable-background:new 0 0 572.5 368.9;" xml:space="preserve">
<style type="text/css">
	.st0{fill:#EF3E57;}
	.st1{fill-rule:evenodd;clip-rule:evenodd;fill:#EF3E57;}
</style>
<g>
	<g>
		<path class="st0" d="M301.6,59l-29.5-29.5L301.6,0l29.5,29.5L301.6,59z M289.1,29.5L301.6,42l12.5-12.5L301.6,17L289.1,29.5z"/>
	</g>
	<g>
		<polygon class="st1" points="129.7,46.4 102.6,19.2 64.8,56.9 27.1,19.2 0,46.4 37.7,84.1 0,121.8 27.1,148.9 64.8,111.2 
			102.6,148.9 129.7,121.8 92,84.1 		"/>
	</g>
	<g>
		
			<ellipse transform="matrix(0.9248 -0.3804 0.3804 0.9248 -67.5044 201.0964)" class="st0" cx="475" cy="271.3" rx="97.5" ry="97.5"/>
	</g>
	<g>
		<path class="st0" d="M175.5,352.1h-56.2l28.1-48.7L175.5,352.1z M140.1,340.1h14.6l-7.3-12.7L140.1,340.1z"/>
	</g>
</g>
</svg>
